# Blender v2.83.0 OBJ File: ''
# www.blender.org
mtllib window-wall.mtl
o Cube.001_Cube.005
v -265.817841 -122.561249 340.436646
v -265.817841 122.878693 340.436646
v -265.817841 -122.561249 -339.773132
v -265.817841 122.878693 -339.773132
v -252.932220 -122.561249 340.436646
v -252.932220 122.878693 340.436646
v -252.932220 -122.561249 -339.773132
v -252.932220 122.878693 -339.773132
v -252.932236 -33.955849 19.795584
v -265.817841 -33.955849 19.795584
v -252.932236 85.515770 19.795584
v -265.817841 85.515770 19.795584
v -252.932236 85.515770 -96.493393
v -265.817841 85.515770 -96.493393
v -252.932236 -33.955849 -96.493393
v -265.817841 -33.955849 -96.493393
vt 0.375000 0.000000
vt 0.625000 0.000000
vt 0.586943 0.117846
vt 0.465252 0.117846
vt 0.465252 0.160586
vt 0.375000 0.250000
vt 0.625000 0.250000
vt 0.625000 0.500000
vt 0.375000 0.500000
vt 0.586943 0.589414
vt 0.465252 0.589413
vt 0.465252 0.632154
vt 0.375000 0.750000
vt 0.625000 0.750000
vt 0.625000 1.000000
vt 0.375000 1.000000
vt 0.125000 0.500000
vt 0.125000 0.750000
vt 0.875000 0.500000
vt 0.875000 0.750000
vt 0.375000 0.386668
vt 0.375000 0.405780
vt 0.625000 0.405780
vt 0.625000 0.386668
vt 0.586943 0.632154
vt 0.586943 0.160587
vt 0.261668 0.750000
vt 0.280780 0.750000
vt 0.280780 0.500000
vt 0.261668 0.500000
vt 0.375000 0.844220
vt 0.375000 0.863332
vt 0.625000 0.863332
vt 0.625000 0.844220
vt 0.719220 0.750000
vt 0.738332 0.750000
vt 0.738332 0.500000
vt 0.719220 0.500000
vn -1.0000 0.0000 0.0000
vn 0.0000 0.0000 -1.0000
vn 1.0000 0.0000 0.0000
vn 0.0000 0.0000 1.0000
vn 0.0000 -1.0000 0.0000
vn 0.0000 1.0000 0.0000
usemtl None
s off
f 1/1/1 2/2/1 12/3/1 10/4/1 16/5/1 3/6/1
f 3/6/2 4/7/2 8/8/2 7/9/2
f 7/9/3 8/8/3 13/10/3 15/11/3 9/12/3 5/13/3
f 5/13/4 6/14/4 2/15/4 1/16/4
f 3/17/5 7/9/5 5/13/5 1/18/5
f 8/8/6 4/19/6 2/20/6 6/14/6
f 16/21/4 15/22/4 13/23/4 14/24/4
f 5/13/3 9/12/3 11/25/3 13/10/3 8/8/3 6/14/3
f 3/6/1 16/5/1 14/26/1 12/3/1 2/2/1 4/7/1
f 10/27/6 9/28/6 15/29/6 16/30/6
f 9/31/2 10/32/2 12/33/2 11/34/2
f 11/35/5 12/36/5 14/37/5 13/38/5
