# Blender v2.83.0 OBJ File: 'window-wall.blend'
# www.blender.org
mtllib window-wall.mtl
o Wand_Fenster_Wand_Fenster.001
v -248.940796 -125.000053 349.999969
v -248.940796 124.999947 350.000031
v -268.940796 124.999947 350.000031
v -268.940796 -125.000053 349.999969
v -248.940796 -34.326328 80.789307
v -248.940796 -34.230827 21.057213
v -248.940796 -34.120213 21.167828
v -248.940796 -34.301830 -98.391190
v -248.940796 -34.326302 -98.236679
v -248.940796 -124.999947 -350.000031
v -248.940796 -34.301849 20.917828
v -248.940796 -34.326321 20.763319
v -248.940796 -34.230808 -98.530579
v -248.940796 -34.120220 80.384796
v -248.940796 -34.230835 80.495415
v -248.940796 -33.980827 21.238848
v -248.940796 -33.826321 21.263319
v -248.940796 -34.120193 -98.641190
v -248.940796 125.000053 -349.999969
v -248.940796 -34.326351 199.789307
v -248.940796 -34.301857 80.634796
v -248.940796 -34.301880 199.943817
v -248.940796 -33.980808 -98.712212
v -248.940796 -34.230858 200.083206
v -248.940796 -33.826302 -98.736679
v -248.940796 -34.120243 200.193817
v -248.940796 -33.980835 80.313782
v -248.940796 85.173698 -98.736656
v -248.940796 85.328209 -98.712189
v -248.940796 -33.980858 200.264847
v -248.940796 85.467590 -98.641167
v -248.940796 -33.826351 200.289307
v -248.940796 -33.826328 80.289307
v -248.940796 85.173653 200.289322
v -248.940796 85.578209 -98.530556
v -248.940796 85.173668 80.289330
v -248.940796 85.173683 21.263338
v -248.940796 85.328194 21.238867
v -248.940796 85.328178 80.313805
v -248.940796 85.649231 -98.391167
v -248.940796 85.328163 200.264862
v -248.940796 85.673698 -98.236656
v -248.940796 85.467545 200.193832
v -248.940796 85.673683 20.763338
v -248.940796 85.467560 80.384819
v -248.940796 85.467575 21.167847
v -248.940796 85.578163 200.083221
v -248.940796 85.649185 199.943832
v -248.940796 85.649216 20.917847
v -248.940796 85.578178 80.495438
v -248.940796 85.578194 21.057232
v -248.940796 85.673653 199.789322
v -248.940796 85.649200 80.634819
v -248.940796 85.673668 80.789330
v -268.940796 -124.999947 -350.000031
v -268.940796 125.000053 -349.999969
v -268.940796 -34.326321 20.763319
v -268.940796 -34.230835 80.495415
v -268.940796 -34.120220 80.384796
v -268.940796 -34.301880 199.943817
v -268.940796 -34.326351 199.789307
v -268.940796 -34.230858 200.083206
v -268.940796 -34.326328 80.789307
v -268.940796 -34.301857 80.634796
v -268.940796 -34.230827 21.057213
v -268.940796 -34.301849 20.917828
v -268.940796 -33.980835 80.313782
v -268.940796 -33.826328 80.289307
v -268.940796 -34.120243 200.193817
v -268.940796 -33.980858 200.264847
v -268.940796 -34.326302 -98.236679
v -268.940796 -33.826351 200.289307
v -268.940796 -34.301830 -98.391190
v -268.940796 -34.230808 -98.530579
v -268.940796 -34.120213 21.167828
v -268.940796 -34.120193 -98.641190
v -268.940796 -33.980827 21.238848
v -268.940796 85.173653 200.289322
v -268.940796 85.173668 80.289330
v -268.940796 85.328163 200.264862
v -268.940796 -33.980808 -98.712212
v -268.940796 85.467545 200.193832
v -268.940796 -33.826302 -98.736679
v -268.940796 85.328194 21.238867
v -268.940796 85.173683 21.263338
v -268.940796 85.328178 80.313805
v -268.940796 85.578163 200.083221
v -268.940796 85.173698 -98.736656
v -268.940796 -33.826321 21.263319
v -268.940796 85.649185 199.943832
v -268.940796 85.328209 -98.712189
v -268.940796 85.673653 199.789322
v -268.940796 85.467590 -98.641167
v -268.940796 85.467560 80.384819
v -268.940796 85.467575 21.167847
v -268.940796 85.673668 80.789330
v -268.940796 85.578209 -98.530556
v -268.940796 85.649231 -98.391167
v -268.940796 85.649200 80.634819
v -268.940796 85.578178 80.495438
v -268.940796 85.578194 21.057232
v -268.940796 85.673698 -98.236656
v -268.940796 85.649216 20.917847
v -268.940796 85.673683 20.763338
v -269.185883 -38.299232 203.155426
v -269.185883 89.836060 203.155411
v -269.185883 -38.299225 77.720268
v -269.185883 89.836060 77.720261
v -248.759109 -38.299232 203.155426
v -248.759109 89.836060 203.155411
v -248.759109 -38.299225 77.720268
v -248.759109 89.836060 77.720261
v -248.940796 -34.326321 20.763319
v -268.940796 -34.326321 20.763319
v -268.940796 -34.301849 20.917828
v -248.940796 -34.301849 20.917828
v -268.940796 -34.230827 21.057213
v -248.940796 -34.230827 21.057213
v -268.940796 -34.120213 21.167828
v -248.940796 -34.120213 21.167828
v -268.940796 -33.980827 21.238848
v -248.940796 -33.980827 21.238848
v -268.940796 -33.826321 21.263319
v -248.940796 -33.826321 21.263319
v -268.940796 85.173683 21.263338
v -248.940796 85.173683 21.263338
v -268.940796 85.328194 21.238867
v -248.940796 85.328194 21.238867
v -268.940796 85.467575 21.167847
v -248.940796 85.467575 21.167847
v -268.940796 85.578194 21.057232
v -248.940796 85.578194 21.057232
v -268.940796 85.649216 20.917847
v -248.940796 85.649216 20.917847
v -268.940796 85.673683 20.763338
v -248.940796 85.673683 20.763338
v -248.940796 -34.301830 -98.391190
v -268.940796 -34.301830 -98.391190
v -268.940796 -34.326302 -98.236679
v -248.940796 -34.326302 -98.236679
v -248.940796 -34.230808 -98.530579
v -268.940796 -34.230808 -98.530579
v -248.940796 -34.120193 -98.641190
v -268.940796 -34.120193 -98.641190
v -248.940796 -33.980808 -98.712212
v -268.940796 -33.980808 -98.712212
v -248.940796 -33.826302 -98.736679
v -268.940796 -33.826302 -98.736679
v -248.940796 85.173698 -98.736656
v -268.940796 85.173698 -98.736656
v -248.940796 85.328209 -98.712189
v -268.940796 85.328209 -98.712189
v -248.940796 85.467590 -98.641167
v -268.940796 85.467590 -98.641167
v -248.940796 85.578209 -98.530556
v -268.940796 85.578209 -98.530556
v -248.940796 85.649231 -98.391167
v -268.940796 85.649231 -98.391167
v -248.940796 85.673698 -98.236656
v -268.940796 85.673698 -98.236656
vt 0.375000 0.000000
vt 0.625000 0.000000
vt 0.625000 0.250000
vt 0.375000 0.250000
vt 0.625000 0.500000
vt 0.375000 0.500000
vt 0.625000 0.750000
vt 0.375000 0.750000
vt 0.625000 1.000000
vt 0.375000 1.000000
vt 0.125000 0.500000
vt 0.125000 0.750000
vt 0.875000 0.500000
vt 0.875000 0.750000
vt 1.000000 0.000000
vt 1.000000 1.000000
vt 0.000000 1.000000
vt 0.000000 0.000000
vt 0.384587 0.362695
vt 0.469918 0.363077
vt 0.469760 0.363519
vt 0.640559 0.362793
vt 0.640338 0.362695
vt 1.000000 0.000000
vt 0.470117 0.362793
vt 0.000000 0.000000
vt 0.470338 0.362695
vt 0.640758 0.363077
vt 0.385165 0.363519
vt 0.385007 0.363077
vt 0.469659 0.364077
vt 0.469624 0.364695
vt 0.640916 0.363519
vt 1.000000 1.000000
vt 0.214587 0.362695
vt 0.384807 0.362793
vt 0.214366 0.362793
vt 0.641017 0.364077
vt 0.214167 0.363077
vt 0.641052 0.364695
vt 0.214009 0.363519
vt 0.385266 0.364077
vt 0.641052 0.840695
vt 0.641017 0.841313
vt 0.213907 0.364077
vt 0.640916 0.841870
vt 0.213872 0.364695
vt 0.385301 0.364695
vt 0.213872 0.840695
vt 0.000000 1.000000
vt 0.640758 0.842313
vt 0.385301 0.840695
vt 0.469624 0.840695
vt 0.469659 0.841313
vt 0.385266 0.841313
vt 0.640559 0.842597
vt 0.213907 0.841313
vt 0.640338 0.842695
vt 0.214009 0.841870
vt 0.470338 0.842695
vt 0.385165 0.841870
vt 0.469760 0.841870
vt 0.214167 0.842313
vt 0.214366 0.842597
vt 0.470117 0.842597
vt 0.385007 0.842313
vt 0.469918 0.842313
vt 0.214587 0.842695
vt 0.384807 0.842597
vt 0.384587 0.842695
vt 1.000000 0.000000
vt 1.000000 1.000000
vt 0.000000 1.000000
vt 0.000000 0.000000
vt 0.529662 0.362695
vt 0.614993 0.363077
vt 0.614835 0.363519
vt 0.785634 0.362793
vt 0.785413 0.362695
vt 1.000000 0.000000
vt 0.000000 0.000000
vt 0.785833 0.363077
vt 0.615413 0.362695
vt 0.615193 0.362793
vt 0.530082 0.363077
vt 0.529883 0.362793
vt 0.614734 0.364077
vt 0.614699 0.364695
vt 0.785991 0.363519
vt 0.786093 0.364077
vt 0.359662 0.362695
vt 0.786128 0.364695
vt 0.359441 0.362793
vt 0.359242 0.363077
vt 0.530240 0.363519
vt 0.359084 0.363519
vt 0.530341 0.364077
vt 0.786128 0.840695
vt 1.000000 1.000000
vt 0.614699 0.840695
vt 0.786093 0.841313
vt 0.358983 0.364077
vt 0.785991 0.841870
vt 0.358948 0.364695
vt 0.530341 0.841313
vt 0.530376 0.840695
vt 0.614734 0.841313
vt 0.785833 0.842313
vt 0.358948 0.840695
vt 0.000000 1.000000
vt 0.530376 0.364695
vt 0.785634 0.842597
vt 0.358983 0.841313
vt 0.785413 0.842695
vt 0.359084 0.841870
vt 0.614835 0.841870
vt 0.530240 0.841870
vt 0.615413 0.842695
vt 0.359242 0.842313
vt 0.359441 0.842597
vt 0.615193 0.842597
vt 0.614993 0.842313
vt 0.530082 0.842313
vt 0.359662 0.842695
vt 0.529883 0.842597
vt 0.529662 0.842695
vt 1.000000 0.000000
vt 0.000000 0.000000
vt 1.000000 1.000000
vt 0.000000 1.000000
vt 0.950272 0.000000
vt 0.447575 0.000000
vt 0.447575 0.001303
vt 0.950272 0.001303
vt 0.447575 0.002606
vt 0.950272 0.002606
vt 0.447575 0.003908
vt 0.950272 0.003908
vt 0.447575 0.005211
vt 0.950272 0.005211
vt 0.447575 0.006514
vt 0.950272 0.006514
vt 0.447575 0.993486
vt 0.950272 0.993486
vt 0.447575 0.994789
vt 0.950272 0.994789
vt 0.447575 0.996092
vt 0.950272 0.996092
vt 0.447575 0.997394
vt 0.950272 0.997394
vt 0.447575 0.998697
vt 0.950272 0.998697
vt 0.447575 1.000000
vt 0.950272 1.000000
vt 0.029987 0.001303
vt 0.532684 0.001303
vt 0.532684 0.000000
vt 0.029987 0.000000
vt 0.029987 0.002606
vt 0.532684 0.002606
vt 0.029987 0.003908
vt 0.532684 0.003908
vt 0.029987 0.005211
vt 0.532684 0.005211
vt 0.029987 0.006514
vt 0.532684 0.006514
vt 0.029987 0.993486
vt 0.532684 0.993486
vt 0.029987 0.994789
vt 0.532684 0.994789
vt 0.029987 0.996092
vt 0.532684 0.996092
vt 0.029987 0.997394
vt 0.532684 0.997394
vt 0.029987 0.998697
vt 0.532684 0.998697
vt 0.029987 1.000000
vt 0.532684 1.000000
vt 0.456588 1.000000
vt 0.969409 1.000000
vt 0.969409 0.000000
vt 0.456588 0.000000
vt 0.969409 0.000000
vt 0.456588 0.000000
vt 0.456588 1.000000
vt 0.969409 1.000000
vn -1.0000 0.0000 0.0000
vn 0.0000 -0.0000 -1.0000
vn 1.0000 -0.0000 0.0000
vn 0.0000 0.0000 1.0000
vn 0.0000 -1.0000 -0.0000
vn 0.0000 1.0000 0.0000
vn 1.0000 0.0002 -0.0000
vn 1.0000 -0.0002 -0.0000
vn 1.0000 0.0001 0.0000
vn 1.0000 -0.0001 0.0000
vn 1.0000 -0.0004 0.0000
vn 1.0000 -0.0003 -0.0000
vn 1.0000 0.0003 0.0000
vn 1.0000 0.0004 0.0000
vn -1.0000 -0.0001 0.0000
vn -1.0000 0.0002 0.0000
vn -1.0000 -0.0003 0.0000
vn -1.0000 0.0001 0.0000
vn -1.0000 -0.0002 -0.0000
vn -1.0000 0.0004 0.0000
vn -1.0000 0.0003 -0.0000
vn -1.0000 -0.0011 -0.0000
vn 0.0000 0.9969 -0.0785
vn 0.0000 0.9511 -0.3090
vn 0.0000 0.8090 -0.5878
vn 0.0000 0.5878 -0.8090
vn 0.0000 0.3090 -0.9511
vn 0.0000 0.0785 -0.9969
vn 0.0000 -0.0785 -0.9969
vn 0.0000 -0.3090 -0.9511
vn 0.0000 -0.5878 -0.8090
vn 0.0000 -0.8090 -0.5878
vn 0.0000 -0.9511 -0.3090
vn 0.0000 -0.9969 -0.0784
vn 0.0000 0.9511 0.3090
vn 0.0000 0.9969 0.0784
vn 0.0000 0.8090 0.5878
vn 0.0000 0.5878 0.8090
vn 0.0000 0.3090 0.9511
vn 0.0000 0.0784 0.9969
vn 0.0000 -0.0784 0.9969
vn 0.0000 -0.3090 0.9511
vn 0.0000 -0.5878 0.8090
vn 0.0000 -0.8090 0.5878
vn 0.0000 -0.9511 0.3090
vn 0.0000 -0.9969 0.0784
usemtl default.001
s off
f 105/1/1 106/2/1 108/3/1 107/4/1
f 107/4/2 108/3/2 112/5/2 111/6/2
f 111/6/3 112/5/3 110/7/3 109/8/3
f 109/8/4 110/7/4 106/9/4 105/10/4
f 107/11/5 111/6/5 109/8/5 105/12/5
f 112/5/6 108/13/6 106/14/6 110/7/6
s 1
f 1/15/4 2/16/4 3/17/4 4/18/4
f 5/19/3 6/20/7 7/21/8
f 8/22/7 9/23/9 10/24/3
f 11/25/9 6/20/7 5/19/3
f 1/26/3 10/24/3 9/23/9 12/27/3
f 13/28/8 8/22/7 10/24/3
f 1/26/3 11/25/9 5/19/3
f 14/29/10 15/30/11 16/31/3 17/32/10
f 18/33/12 10/24/3 19/34/3
f 1/26/3 12/27/3 11/25/9
f 1/26/3 5/19/3 20/35/3
f 18/33/12 13/28/8 10/24/3
f 21/36/13 5/19/3 7/21/8 16/31/3
f 1/26/3 20/35/3 22/37/10
f 23/38/3 18/33/12 19/34/3
f 15/30/11 21/36/13 16/31/3
f 1/26/3 22/37/10 24/39/3
f 25/40/3 23/38/3 19/34/3
f 1/26/3 24/39/3 26/41/3
f 27/42/3 14/29/10 17/32/10
f 28/43/9 25/40/3 19/34/3
f 29/44/3 28/43/9 19/34/3
f 1/26/3 26/41/3 30/45/10
f 31/46/9 29/44/3 19/34/3
f 1/26/3 30/45/10 32/47/3
f 33/48/3 27/42/3 17/32/10
f 34/49/3 2/50/3 1/26/3 32/47/3
f 35/51/12 31/46/9 19/34/3
f 36/52/10 33/48/3 17/32/10 37/53/10
f 38/54/3 39/55/3 36/52/10 37/53/10
f 40/56/3 35/51/12 19/34/3
f 2/50/3 34/49/3 41/57/9
f 42/58/10 40/56/3 19/34/3
f 2/50/3 41/57/9 43/59/3
f 44/60/3 42/58/10 19/34/3 2/50/3
f 45/61/9 39/55/3 38/54/3 46/62/9
f 2/50/3 43/59/3 47/63/3
f 2/50/3 47/63/3 48/64/8
f 49/65/9 44/60/3 2/50/3
f 50/66/3 45/61/9 46/62/9 51/67/14
f 51/67/14 49/65/9 2/50/3
f 2/50/3 48/64/8 52/68/3
f 53/69/3 50/66/3 51/67/14
f 2/50/3 52/68/3 54/70/3
f 54/70/3 53/69/3 51/67/14
f 54/70/3 51/67/14 2/50/3
f 55/71/2 56/72/2 19/73/2 10/74/2
f 57/75/1 58/76/15 59/77/16
f 60/78/17 61/79/15 4/80/1
f 55/81/1 58/76/15 57/75/1
f 62/82/18 60/78/17 4/80/1
f 63/83/1 55/81/1 4/80/1 61/79/15
f 55/81/1 64/84/1 58/76/15
f 65/85/1 66/86/1 67/87/1 68/88/1
f 69/89/19 62/82/18 4/80/1
f 55/81/1 63/83/1 64/84/1
f 70/90/1 69/89/19 4/80/1
f 55/81/1 57/75/1 71/91/1
f 66/86/1 57/75/1 59/77/16 67/87/1
f 72/92/1 70/90/1 4/80/1
f 55/81/1 71/91/1 73/93/17
f 55/81/1 73/93/17 74/94/15
f 75/95/20 65/85/1 68/88/1
f 76/96/21 55/81/1 74/94/15
f 77/97/15 75/95/20 68/88/1
f 78/98/1 72/92/1 4/80/1 3/99/1
f 77/97/15 68/88/1 79/100/18
f 80/101/19 78/98/1 3/99/1
f 81/102/1 55/81/1 76/96/21
f 82/103/16 80/101/19 3/99/1
f 83/104/1 55/81/1 81/102/1
f 84/105/18 85/106/18 79/100/18 86/107/18
f 87/108/1 82/103/16 3/99/1
f 88/109/15 56/110/1 55/81/1 83/104/1
f 89/111/21 77/97/15 79/100/18
f 90/112/1 87/108/1 3/99/1
f 85/106/18 89/111/21 79/100/18
f 56/110/1 88/109/15 91/113/18
f 92/114/1 90/112/1 3/99/1
f 56/110/1 91/113/18 93/115/1
f 94/116/17 95/117/17 84/105/18 86/107/18
f 96/118/1 92/114/1 3/99/1 56/110/1
f 56/110/1 93/115/1 97/119/16
f 56/110/1 97/119/16 98/120/1
f 99/121/1 96/118/1 56/110/1
f 100/122/1 101/123/1 95/117/17 94/116/17
f 100/122/1 99/121/1 56/110/1
f 56/110/1 98/120/1 102/124/1
f 103/125/22 101/123/1 100/122/1
f 56/110/1 102/124/1 104/126/1
f 104/126/1 103/125/22 100/122/1
f 104/126/1 100/122/1 56/110/1
f 2/127/6 19/34/6 56/110/6 3/128/6
f 10/24/5 1/129/5 4/130/5 55/81/5
f 113/131/23 114/132/23 115/133/24 116/134/24
f 116/134/24 115/133/24 117/135/25 118/136/25
f 118/136/25 117/135/25 119/137/26 120/138/26
f 120/138/26 119/137/26 121/139/27 122/140/27
f 122/140/27 121/139/27 123/141/28 124/142/28
f 124/142/28 123/141/28 125/143/29 126/144/29
f 126/144/29 125/143/29 127/145/30 128/146/30
f 128/146/30 127/145/30 129/147/31 130/148/31
f 131/149/32 132/150/32 130/148/31 129/147/31
f 133/151/33 134/152/33 132/150/32 131/149/32
f 135/153/34 136/154/34 134/152/33 133/151/33
f 137/155/35 138/156/35 139/157/36 140/158/36
f 141/159/37 142/160/37 138/156/35 137/155/35
f 143/161/38 144/162/38 142/160/37 141/159/37
f 145/163/39 146/164/39 144/162/38 143/161/38
f 147/165/40 148/166/40 146/164/39 145/163/39
f 149/167/41 150/168/41 148/166/40 147/165/40
f 151/169/42 152/170/42 150/168/41 149/167/41
f 153/171/43 154/172/43 152/170/42 151/169/42
f 154/172/43 153/171/43 155/173/44 156/174/44
f 156/174/44 155/173/44 157/175/45 158/176/45
f 158/176/45 157/175/45 159/177/46 160/178/46
f 160/179/46 159/180/46 136/181/34 135/182/34
f 140/183/36 139/184/36 114/185/23 113/186/23
